<svg width="16" height="16" viewBox="0 0 16 16" fill="none" xmlns="http://www.w3.org/2000/svg">
<path d="M6 14.6667L6.00133 11.9987C6.00133 11.378 6.00133 11.068 6.10333 10.8233C6.17034 10.6615 6.2686 10.5144 6.39248 10.3905C6.51637 10.2666 6.66345 10.1683 6.82533 10.1013C7.07 10 7.38 10 8 10C8.62 10 8.93067 10 9.176 10.1013C9.33788 10.1683 9.48497 10.2666 9.60885 10.3905C9.73274 10.5144 9.83099 10.6615 9.898 10.8233C10 11.0687 10 11.3787 10 12V14.6667" stroke="currentColor" stroke-linecap="round" stroke-linejoin="round"/>
<path d="M4.72533 3.17471L4.05867 3.69537C3.048 4.48471 2.542 4.87937 2.27133 5.43537C2 5.99204 2 6.63471 2 7.92004V9.31471C2 11.8374 2 13.0987 2.78133 13.8827C3.56267 14.6667 4.81933 14.6667 7.33333 14.6667H8.66667C11.1807 14.6667 12.438 14.6667 13.2187 13.8827C13.9993 13.0987 14 11.8374 14 9.31404V7.92071C14 6.63471 14 5.99204 13.7287 5.43537C13.4573 4.87937 12.952 4.48471 11.9413 3.69537L11.2747 3.17537C9.70133 1.94671 8.91467 1.33337 8 1.33337C7.08533 1.33337 6.29867 1.94671 4.72533 3.17471Z" stroke="currentColor" stroke-linecap="round" stroke-linejoin="round"/>
</svg>
