<svg width="16" height="16" viewBox="0 0 16 16" fill="none" xmlns="http://www.w3.org/2000/svg">
<g clip-path="url(#clip0_300_83)">
<path d="M2.66667 10V12.6667M8 6.00001V12.6667M14.6667 14.6667H1.33333M13.3333 8.66668V12.6667M3.73333 5.86668C3.62828 5.7266 3.49666 5.60859 3.34599 5.51938C3.19533 5.43017 3.02856 5.37151 2.85523 5.34674C2.68189 5.32198 2.50538 5.3316 2.33576 5.37506C2.16614 5.41851 2.00674 5.49495 1.86667 5.60001C1.72659 5.70507 1.60858 5.83669 1.51937 5.98735C1.43016 6.13802 1.3715 6.30478 1.34673 6.47811C1.29672 6.82818 1.38783 7.18378 1.6 7.46668C1.81217 7.74957 2.12804 7.9366 2.47811 7.98661C2.82817 8.03662 3.18377 7.94552 3.46667 7.73334C3.74956 7.52117 3.93659 7.20531 3.9866 6.85524C4.03661 6.50517 3.94551 6.14957 3.73333 5.86668ZM3.73333 5.86668L6.93333 3.46668M6.93333 3.46668C7.06964 3.64869 7.25023 3.79282 7.45794 3.88536C7.66565 3.9779 7.89357 4.01579 8.12005 3.99541C8.34653 3.97503 8.56403 3.89707 8.75189 3.76894C8.93974 3.64081 9.09171 3.46676 9.19333 3.26334M6.93333 3.46668C6.79104 3.27667 6.70206 3.05212 6.67557 2.81623C6.64908 2.58033 6.68605 2.34164 6.78266 2.12481C6.87926 1.90797 7.03201 1.72086 7.22511 1.58281C7.41821 1.44475 7.64467 1.36074 7.8811 1.33947C8.11752 1.3182 8.35534 1.36043 8.56998 1.46181C8.78463 1.56318 8.96831 1.72002 9.10207 1.91613C9.23583 2.11223 9.31482 2.34049 9.33086 2.57733C9.3469 2.81416 9.29943 3.05099 9.19333 3.26334M9.19333 3.26334L12.14 4.73668C12.0616 4.8933 12.0149 5.06382 12.0025 5.23851C11.99 5.41319 12.0121 5.58862 12.0674 5.75478C12.1792 6.09034 12.4197 6.36776 12.736 6.52601C13.0523 6.68426 13.4185 6.71036 13.7541 6.59859C14.0897 6.48682 14.3671 6.24632 14.5253 5.93001C14.6803 5.61417 14.7042 5.24986 14.5918 4.91649C14.4793 4.58312 14.2397 4.30771 13.925 4.15026C13.6104 3.99282 13.2463 3.96611 12.9121 4.07595C12.5778 4.18579 12.3006 4.42329 12.1407 4.73668" stroke="currentColor" stroke-linecap="round" stroke-linejoin="round"/>
</g>
<defs>
<clipPath id="clip0_300_83">
<rect width="16" height="16" fill="white"/>
</clipPath>
</defs>
</svg>
