<svg width="16" height="16" viewBox="0 0 16 16" fill="none" xmlns="http://www.w3.org/2000/svg">
<path d="M10 7.33333C10.7072 7.33333 11.3855 7.05238 11.8856 6.55229C12.3857 6.05219 12.6667 5.37391 12.6667 4.66667C12.6667 3.95942 12.3857 3.28115 11.8856 2.78105C11.3855 2.28095 10.7072 2 10 2M11.3333 9.33333C12.2174 9.33333 13.0652 9.68452 13.6904 10.3096C14.3155 10.9348 14.6667 11.7826 14.6667 12.6667C14.6667 13.0203 14.5262 13.3594 14.2761 13.6095C14.0261 13.8595 13.687 14 13.3333 14H12.3333M8.66667 4.66667C8.66667 5.37391 8.38571 6.05219 7.88562 6.55229C7.38552 7.05238 6.70724 7.33333 6 7.33333C5.29275 7.33333 4.61448 7.05238 4.11438 6.55229C3.61428 6.05219 3.33333 5.37391 3.33333 4.66667C3.33333 3.95942 3.61428 3.28115 4.11438 2.78105C4.61448 2.28095 5.29275 2 6 2C6.70724 2 7.38552 2.28095 7.88562 2.78105C8.38571 3.28115 8.66667 3.95942 8.66667 4.66667ZM7.33333 9.33333H4.66667C3.78261 9.33333 2.93476 9.68452 2.30964 10.3096C1.68452 10.9348 1.33333 11.7826 1.33333 12.6667C1.33333 13.0203 1.47381 13.3594 1.72386 13.6095C1.9739 13.8595 2.31304 14 2.66667 14H9.33333C9.68695 14 10.0261 13.8595 10.2761 13.6095C10.5262 13.3594 10.6667 13.0203 10.6667 12.6667C10.6667 11.7826 10.3155 10.9348 9.69035 10.3096C9.06523 9.68452 8.21739 9.33333 7.33333 9.33333Z" stroke="currentColor" stroke-linecap="round" stroke-linejoin="round"/>
</svg>
